<svg width="100" height="100" viewBox="0 0 100 100" fill="none" xmlns="http://www.w3.org/2000/svg">
<rect width="100" height="100" fill="#1E1E1E"/>
<rect width="100" height="100" fill="#4D4D4D"/>
<path d="M26.168 68.64C25.4427 68.64 24.8667 68.4267 24.44 68C24.0133 67.5307 23.8 66.8907 23.8 66.08V37.152C23.8 32.6293 25.08 29.0667 27.64 26.464C30.2 23.8613 33.72 22.56 38.2 22.56C40.8027 22.56 43.192 23.2427 45.368 24.608C47.5867 25.9307 49.2507 27.7013 50.36 29.92C51.4693 27.6587 53.0907 25.8667 55.224 24.544C57.4 23.2213 59.832 22.56 62.52 22.56C67 22.56 70.52 23.8613 73.08 26.464C75.64 29.024 76.92 32.5867 76.92 37.152V66.08C76.92 66.8907 76.6853 67.5307 76.216 68C75.7893 68.4267 75.2133 68.64 74.488 68.64C73.72 68.64 73.1227 68.4267 72.696 68C72.312 67.5307 72.12 66.8907 72.12 66.08V37.152C72.12 33.7813 71.352 31.2 69.816 29.408C68.3227 27.616 65.848 26.72 62.392 26.72C59.3627 26.72 56.9947 27.6587 55.288 29.536C53.5813 31.3707 52.728 33.9093 52.728 37.152V66.08C52.728 66.8907 52.5147 67.5307 52.088 68C51.6613 68.4267 51.0853 68.64 50.36 68.64C49.6347 68.64 49.0587 68.4267 48.632 68C48.248 67.5307 48.056 66.8907 48.056 66.08V37.152C48.056 33.9947 47.16 31.4773 45.368 29.6C43.576 27.68 41.2293 26.72 38.328 26.72C34.872 26.72 32.376 27.616 30.84 29.408C29.3467 31.2 28.6 33.7813 28.6 37.152V66.08C28.6 66.8907 28.3867 67.5307 27.96 68C27.5333 68.4267 26.936 68.64 26.168 68.64Z" fill="white"/>
</svg>
